<svg width="20" height="20" viewBox="0 0 25 24" fill="none" xmlns="http://www.w3.org/2000/svg">
								<path d="M22.9214 6.25781C22.7448 6.05922 22.5282 5.90019 22.2859 5.79114C22.0435 5.68208 21.7809 5.62547 21.5151 5.625H17.3742C17.2752 4.40426 16.7204 3.26548 15.8201 2.43518C14.9197 1.60487 13.7399 1.14387 12.5151 1.14387C11.2904 1.14387 10.1105 1.60487 9.21017 2.43518C8.30983 3.26548 7.75501 4.40426 7.65606 5.625H3.52262C3.25718 5.62396 2.99454 5.67929 2.75208 5.78733C2.50962 5.89537 2.29286 6.05367 2.11615 6.25174C1.93943 6.44981 1.80679 6.68315 1.72699 6.93632C1.64719 7.18948 1.62206 7.45671 1.65325 7.72031L2.98919 18.9703C3.04446 19.427 3.26522 19.8477 3.60971 20.1526C3.9542 20.4575 4.39851 20.6256 4.85856 20.625H20.1717C20.6317 20.6256 21.076 20.4575 21.4205 20.1526C21.765 19.8477 21.9858 19.427 22.0411 18.9703L23.377 7.72031C23.4083 7.4582 23.3839 7.19244 23.3054 6.94041C23.2268 6.68839 23.096 6.45578 22.9214 6.25781ZM12.5151 3.375C13.1463 3.37506 13.7563 3.60255 14.2334 4.01577C14.7105 4.429 15.0228 5.0003 15.1129 5.625H9.91731C10.0075 5.0003 10.3197 4.429 10.7968 4.01577C11.2739 3.60255 11.8839 3.37506 12.5151 3.375ZM19.8454 18.375H5.18481L3.937 7.875H21.0933L19.8454 18.375Z" fill="#211F1C"></path>
							</svg>