<svg viewBox="0 0 182 44" fill="none" xmlns="http://www.w3.org/2000/svg">
<path d="M2.84445 26.8043L1.65395 9.69512C1.63694 9.50804 1.58592 8.98082 1.56891 8.79374C1.5349 8.33455 1.63694 8.11346 1.85803 7.84134C1.96008 7.70529 2.35124 7.43317 2.92948 7.55222C3.08255 7.58624 3.40568 7.62025 3.54174 7.63726C4.6302 7.77332 5.3445 7.85835 6.02478 7.90937C7.65747 8.02842 8.47381 8.09645 9.30716 8.02842C10.2596 7.94339 10.4296 7.90937 11.7902 7.70529C13.5249 7.43317 13.8991 7.72229 14.1712 7.92638C14.4433 8.13047 14.6814 8.58966 14.6644 9.04885C14.6644 9.26994 14.5454 9.78016 14.5113 10.0013C14.2732 11.1407 14.1372 15.9027 14.1372 16.651C14.1372 17.3143 14.1882 17.8415 14.2732 18.2667C14.2903 18.3688 14.3753 18.4198 14.4773 18.4198L21.5693 17.7055C22.4537 17.6375 23.3551 17.5014 23.7972 18.0456C24.2394 18.5729 24.0694 19.1681 23.6612 19.8144C23.5251 20.0355 23.4401 20.2906 23.4401 20.5627L23.151 27.1444C23.151 27.3145 23.0149 27.4506 22.8619 27.4676L10.3446 28.8282C10.3106 28.8282 10.2596 28.8282 10.2255 28.8282L3.11656 27.1104C2.9635 27.0594 2.86145 26.9404 2.84445 26.8043Z" stroke="#11100E" stroke-miterlimit="10" stroke-linecap="round" stroke-linejoin="round"/>
<path d="M4.49609 10.1368C4.49609 10.1368 5.48251 15.0518 5.77163 17.9941C5.78864 18.0961 5.89068 18.1641 5.99272 18.1641C6.94512 18.0281 11.452 17.739 11.9622 18.9295C12.4214 19.9839 12.4554 23.1302 12.4724 23.9466C12.4724 24.0656 12.5745 24.1506 12.6765 24.1336L20.3127 23.2493" stroke="#11100E" stroke-miterlimit="10" stroke-linecap="round" stroke-linejoin="round"/>
<path d="M10.2115 28.8116L9.53125 20.325" stroke="#11100E" stroke-miterlimit="10" stroke-linecap="round" stroke-linejoin="round"/>
<path d="M19.5469 17.5187V14.6615" stroke="#11100E" stroke-width="0.7" stroke-miterlimit="10" stroke-linecap="round" stroke-linejoin="round"/>
<path d="M20.6719 14.7125V16.0731" stroke="#11100E" stroke-width="0.7" stroke-miterlimit="10" stroke-linecap="round" stroke-linejoin="round"/>
<path d="M18.4245 14.6615C18.4245 15.1207 18.0504 15.4949 17.5912 15.4949C17.132 15.4949 16.7578 15.1207 16.7578 14.6615" stroke="#11100E" stroke-width="0.7" stroke-miterlimit="10" stroke-linecap="round" stroke-linejoin="round"/>
<path d="M20.7028 7.38242H18.3728C18.2367 7.38242 18.1007 7.46745 18.0667 7.60351L15.8727 13.3349C15.8217 13.471 15.9238 13.607 16.0598 13.607H22.9987C23.1348 13.607 23.2368 13.471 23.1858 13.3349L21.0089 7.60351C20.9749 7.46745 20.8388 7.38242 20.7028 7.38242Z" stroke="#11100E" stroke-miterlimit="10" stroke-linecap="round" stroke-linejoin="round"/>
<path d="M32.3316 28V5.6H37.7716V28H32.3316ZM34.8596 19.424V14.88H46.4436V19.424H34.8596ZM34.8596 10.4V5.6H47.7556V10.4H34.8596ZM50.3276 28V11.008H55.1916L55.4156 16.544L54.4556 15.488C54.7116 14.5707 55.1276 13.7493 55.7036 13.024C56.301 12.2987 56.9943 11.7227 57.7836 11.296C58.573 10.8693 59.4156 10.656 60.3116 10.656C60.6956 10.656 61.0476 10.688 61.3676 10.752C61.709 10.816 62.0183 10.8907 62.2956 10.976L60.8876 16.64C60.653 16.4907 60.333 16.3733 59.9276 16.288C59.5436 16.1813 59.1383 16.128 58.7116 16.128C58.2423 16.128 57.805 16.2133 57.3996 16.384C56.9943 16.5333 56.653 16.7573 56.3756 17.056C56.0983 17.3547 55.8743 17.7067 55.7036 18.112C55.5543 18.5173 55.4796 18.976 55.4796 19.488V28H50.3276ZM71.3074 28.32C69.43 28.32 67.798 27.9467 66.4114 27.2C65.0247 26.432 63.9474 25.3973 63.1794 24.096C62.4114 22.7733 62.0274 21.2693 62.0274 19.584C62.0274 18.2827 62.2407 17.088 62.6674 16C63.094 14.912 63.6914 13.9733 64.4594 13.184C65.2274 12.3733 66.134 11.7547 67.1794 11.328C68.246 10.88 69.4087 10.656 70.6674 10.656C71.862 10.656 72.95 10.8693 73.9314 11.296C74.934 11.7227 75.798 12.32 76.5234 13.088C77.2487 13.856 77.8034 14.7627 78.1874 15.808C78.5714 16.8533 78.742 17.9947 78.6994 19.232L78.6674 20.608H65.1314L64.3954 17.728H74.5074L73.9634 18.336V17.696C73.9207 17.1627 73.75 16.6933 73.4514 16.288C73.174 15.8613 72.8007 15.5307 72.3314 15.296C71.862 15.0613 71.3287 14.944 70.7314 14.944C69.8994 14.944 69.1847 15.1147 68.5874 15.456C68.0114 15.776 67.574 16.256 67.2754 16.896C66.9767 17.5147 66.8274 18.2827 66.8274 19.2C66.8274 20.1387 67.0194 20.96 67.4034 21.664C67.8087 22.3467 68.3847 22.88 69.1314 23.264C69.8994 23.648 70.806 23.84 71.8514 23.84C72.5767 23.84 73.2167 23.7333 73.7714 23.52C74.3474 23.3067 74.966 22.944 75.6274 22.432L78.0274 25.824C77.366 26.4 76.662 26.8693 75.9154 27.232C75.1687 27.5947 74.4007 27.8613 73.6114 28.032C72.8434 28.224 72.0754 28.32 71.3074 28.32ZM86.7294 28.32C85.0654 28.32 83.5934 28.0533 82.3134 27.52C81.0547 26.9867 80.052 26.272 79.3054 25.376L82.4094 22.688C83.0707 23.3493 83.8174 23.84 84.6494 24.16C85.4814 24.4587 86.2707 24.608 87.0174 24.608C87.316 24.608 87.5827 24.576 87.8174 24.512C88.052 24.448 88.244 24.3627 88.3934 24.256C88.564 24.128 88.692 23.9893 88.7774 23.84C88.8627 23.6693 88.9054 23.4773 88.9054 23.264C88.9054 22.8373 88.7134 22.5067 88.3294 22.272C88.1374 22.1653 87.8174 22.0373 87.3694 21.888C86.9214 21.7387 86.3454 21.568 85.6414 21.376C84.6387 21.12 83.764 20.8213 83.0174 20.48C82.292 20.1173 81.6947 19.7013 81.2254 19.232C80.7987 18.784 80.468 18.2933 80.2334 17.76C79.9987 17.2053 79.8814 16.5867 79.8814 15.904C79.8814 15.1147 80.0627 14.4 80.4254 13.76C80.8094 13.12 81.3107 12.5653 81.9294 12.096C82.5694 11.6267 83.2947 11.2747 84.1054 11.04C84.9374 10.784 85.7907 10.656 86.6654 10.656C87.604 10.656 88.5 10.7627 89.3534 10.976C90.2067 11.1893 90.996 11.488 91.7214 11.872C92.468 12.256 93.1294 12.7147 93.7054 13.248L91.0174 16.256C90.6334 15.8933 90.196 15.5733 89.7054 15.296C89.236 14.9973 88.7454 14.7627 88.2334 14.592C87.7214 14.4213 87.252 14.336 86.8254 14.336C86.5054 14.336 86.2174 14.368 85.9614 14.432C85.7267 14.4747 85.524 14.56 85.3534 14.688C85.1827 14.7947 85.0547 14.9333 84.9694 15.104C84.884 15.2533 84.8414 15.4347 84.8414 15.648C84.8414 15.8613 84.8947 16.064 85.0014 16.256C85.1294 16.448 85.3 16.608 85.5134 16.736C85.7267 16.864 86.068 17.0133 86.5374 17.184C87.0067 17.3333 87.6467 17.5253 88.4574 17.76C89.46 18.0373 90.324 18.3467 91.0494 18.688C91.7747 19.0293 92.3507 19.4347 92.7774 19.904C93.1187 20.2667 93.3747 20.6933 93.5454 21.184C93.716 21.6533 93.8014 22.1653 93.8014 22.72C93.8014 23.808 93.492 24.7787 92.8734 25.632C92.276 26.464 91.444 27.1253 90.3774 27.616C89.3107 28.0853 88.0947 28.32 86.7294 28.32ZM95.8851 28V4.32H100.909V14.464L99.8851 14.848C100.12 14.08 100.536 13.3867 101.133 12.768C101.752 12.128 102.488 11.616 103.341 11.232C104.194 10.848 105.09 10.656 106.029 10.656C107.309 10.656 108.386 10.9227 109.261 11.456C110.136 11.968 110.797 12.7467 111.245 13.792C111.693 14.816 111.917 16.0747 111.917 17.568V28H106.765V17.984C106.765 17.3013 106.669 16.736 106.477 16.288C106.285 15.84 105.986 15.5093 105.581 15.296C105.197 15.0613 104.717 14.9547 104.141 14.976C103.693 14.976 103.277 15.0507 102.893 15.2C102.509 15.328 102.178 15.5307 101.901 15.808C101.624 16.064 101.4 16.3627 101.229 16.704C101.08 17.0453 101.005 17.4187 101.005 17.824V28H98.4771C97.8798 28 97.3678 28 96.9411 28C96.5145 28 96.1625 28 95.8851 28ZM125.958 28.32C124.272 28.32 122.715 28.0427 121.286 27.488C119.878 26.912 118.651 26.112 117.606 25.088C116.56 24.0427 115.75 22.816 115.174 21.408C114.619 19.9787 114.342 18.4107 114.342 16.704C114.342 15.04 114.64 13.504 115.238 12.096C115.835 10.688 116.656 9.472 117.702 8.448C118.768 7.40267 120.016 6.592 121.446 6.016C122.896 5.44 124.475 5.152 126.182 5.152C127.248 5.152 128.294 5.29067 129.318 5.568C130.342 5.84533 131.291 6.26133 132.166 6.816C133.062 7.34933 133.83 7.98933 134.47 8.736L131.142 12.544C130.694 12.0747 130.214 11.6693 129.702 11.328C129.211 10.9653 128.667 10.688 128.07 10.496C127.472 10.304 126.832 10.208 126.15 10.208C125.296 10.208 124.486 10.368 123.718 10.688C122.971 10.9867 122.31 11.424 121.734 12C121.179 12.5547 120.742 13.2373 120.422 14.048C120.102 14.8587 119.942 15.7653 119.942 16.768C119.942 17.7493 120.102 18.6453 120.422 19.456C120.742 20.2453 121.19 20.928 121.766 21.504C122.342 22.08 123.035 22.5173 123.846 22.816C124.678 23.1147 125.595 23.264 126.598 23.264C127.28 23.264 127.931 23.168 128.55 22.976C129.168 22.784 129.734 22.528 130.246 22.208C130.779 21.8667 131.248 21.4827 131.654 21.056L134.278 25.216C133.744 25.8133 133.03 26.3467 132.134 26.816C131.259 27.2853 130.278 27.6587 129.19 27.936C128.123 28.192 127.046 28.32 125.958 28.32ZM142.768 28.288C141.339 28.288 140.059 27.9147 138.928 27.168C137.819 26.4 136.934 25.3547 136.272 24.032C135.611 22.688 135.28 21.1733 135.28 19.488C135.28 17.76 135.611 16.2347 136.272 14.912C136.934 13.5893 137.84 12.5547 138.992 11.808C140.144 11.04 141.456 10.656 142.928 10.656C143.739 10.656 144.475 10.7733 145.136 11.008C145.819 11.2427 146.416 11.5733 146.928 12C147.44 12.4053 147.878 12.8853 148.24 13.44C148.603 13.9733 148.87 14.5493 149.04 15.168L147.984 15.04V11.008H153.072V28H147.888V23.904L149.04 23.872C148.87 24.4693 148.592 25.0347 148.208 25.568C147.824 26.1013 147.355 26.5707 146.8 26.976C146.246 27.3813 145.627 27.7013 144.944 27.936C144.262 28.1707 143.536 28.288 142.768 28.288ZM144.176 23.968C144.966 23.968 145.648 23.7867 146.224 23.424C146.8 23.0613 147.248 22.5493 147.568 21.888C147.888 21.2053 148.048 20.4053 148.048 19.488C148.048 18.5707 147.888 17.7813 147.568 17.12C147.248 16.4373 146.8 15.9147 146.224 15.552C145.648 15.168 144.966 14.976 144.176 14.976C143.408 14.976 142.736 15.168 142.16 15.552C141.606 15.9147 141.168 16.4373 140.848 17.12C140.528 17.7813 140.368 18.5707 140.368 19.488C140.368 20.4053 140.528 21.2053 140.848 21.888C141.168 22.5493 141.606 23.0613 142.16 23.424C142.736 23.7867 143.408 23.968 144.176 23.968ZM156.63 28V11.008H161.494L161.718 16.544L160.758 15.488C161.014 14.5707 161.43 13.7493 162.006 13.024C162.603 12.2987 163.297 11.7227 164.086 11.296C164.875 10.8693 165.718 10.656 166.614 10.656C166.998 10.656 167.35 10.688 167.67 10.752C168.011 10.816 168.321 10.8907 168.598 10.976L167.19 16.64C166.955 16.4907 166.635 16.3733 166.23 16.288C165.846 16.1813 165.441 16.128 165.014 16.128C164.545 16.128 164.107 16.2133 163.702 16.384C163.297 16.5333 162.955 16.7573 162.678 17.056C162.401 17.3547 162.177 17.7067 162.006 18.112C161.857 18.5173 161.782 18.976 161.782 19.488V28H156.63ZM172.266 28V6.72H177.386V28H172.266ZM169.258 15.488V11.008H180.682V15.488H169.258Z" fill="#211F1C"/>
<path d="M127.644 43V34.6H129.204V43H127.644ZM128.364 39.556V38.14H132.696V39.556H128.364ZM128.364 36.04V34.6H133.212V36.04H128.364ZM136.701 43.12C136.245 43.12 135.849 43.02 135.513 42.82C135.177 42.612 134.921 42.32 134.745 41.944C134.569 41.56 134.481 41.104 134.481 40.576V36.676H135.957V40.264C135.957 40.6 136.009 40.888 136.113 41.128C136.217 41.36 136.369 41.54 136.569 41.668C136.769 41.796 137.009 41.86 137.289 41.86C137.497 41.86 137.685 41.828 137.853 41.764C138.029 41.692 138.181 41.596 138.309 41.476C138.437 41.348 138.537 41.2 138.609 41.032C138.681 40.856 138.717 40.668 138.717 40.468V36.676H140.193V43H138.753L138.729 41.68L138.993 41.536C138.897 41.84 138.733 42.112 138.501 42.352C138.277 42.584 138.009 42.772 137.697 42.916C137.385 43.052 137.053 43.12 136.701 43.12ZM141.923 43V36.676H143.375L143.399 38.692L143.195 38.236C143.283 37.916 143.435 37.628 143.651 37.372C143.867 37.116 144.115 36.916 144.395 36.772C144.683 36.62 144.983 36.544 145.295 36.544C145.431 36.544 145.559 36.556 145.679 36.58C145.807 36.604 145.911 36.632 145.991 36.664L145.595 38.284C145.507 38.236 145.399 38.196 145.271 38.164C145.143 38.132 145.015 38.116 144.887 38.116C144.687 38.116 144.495 38.156 144.311 38.236C144.135 38.308 143.979 38.412 143.843 38.548C143.707 38.684 143.599 38.844 143.519 39.028C143.447 39.204 143.411 39.404 143.411 39.628V43H141.923ZM146.973 43V36.676H148.413L148.437 37.972L148.161 38.116C148.241 37.828 148.397 37.568 148.629 37.336C148.861 37.096 149.137 36.904 149.457 36.76C149.777 36.616 150.105 36.544 150.441 36.544C150.921 36.544 151.321 36.64 151.641 36.832C151.969 37.024 152.213 37.312 152.373 37.696C152.541 38.08 152.625 38.56 152.625 39.136V43H151.149V39.244C151.149 38.924 151.105 38.66 151.017 38.452C150.929 38.236 150.793 38.08 150.609 37.984C150.425 37.88 150.201 37.832 149.937 37.84C149.721 37.84 149.521 37.876 149.337 37.948C149.161 38.012 149.005 38.108 148.869 38.236C148.741 38.356 148.637 38.496 148.557 38.656C148.485 38.816 148.449 38.992 148.449 39.184V43H147.717C147.573 43 147.437 43 147.309 43C147.189 43 147.077 43 146.973 43ZM154.454 43V36.676H155.93V43H154.454ZM155.174 35.332C154.878 35.332 154.646 35.26 154.478 35.116C154.318 34.964 154.238 34.752 154.238 34.48C154.238 34.224 154.322 34.016 154.49 33.856C154.658 33.696 154.886 33.616 155.174 33.616C155.478 33.616 155.71 33.692 155.87 33.844C156.038 33.988 156.122 34.2 156.122 34.48C156.122 34.728 156.038 34.932 155.87 35.092C155.702 35.252 155.47 35.332 155.174 35.332ZM158.486 43V35.068H159.962V43H158.486ZM157.238 38.044V36.676H161.342V38.044H157.238ZM164.662 43.12C164.206 43.12 163.81 43.02 163.474 42.82C163.138 42.612 162.882 42.32 162.706 41.944C162.53 41.56 162.442 41.104 162.442 40.576V36.676H163.918V40.264C163.918 40.6 163.97 40.888 164.074 41.128C164.178 41.36 164.33 41.54 164.53 41.668C164.73 41.796 164.97 41.86 165.25 41.86C165.458 41.86 165.646 41.828 165.814 41.764C165.99 41.692 166.142 41.596 166.27 41.476C166.398 41.348 166.498 41.2 166.57 41.032C166.642 40.856 166.678 40.668 166.678 40.468V36.676H168.154V43H166.714L166.69 41.68L166.954 41.536C166.858 41.84 166.694 42.112 166.462 42.352C166.238 42.584 165.97 42.772 165.658 42.916C165.346 43.052 165.014 43.12 164.662 43.12ZM169.884 43V36.676H171.336L171.36 38.692L171.156 38.236C171.244 37.916 171.396 37.628 171.612 37.372C171.828 37.116 172.076 36.916 172.356 36.772C172.644 36.62 172.944 36.544 173.256 36.544C173.392 36.544 173.52 36.556 173.64 36.58C173.768 36.604 173.872 36.632 173.952 36.664L173.556 38.284C173.468 38.236 173.36 38.196 173.232 38.164C173.104 38.132 172.976 38.116 172.848 38.116C172.648 38.116 172.456 38.156 172.272 38.236C172.096 38.308 171.94 38.412 171.804 38.548C171.668 38.684 171.56 38.844 171.48 39.028C171.408 39.204 171.372 39.404 171.372 39.628V43H169.884ZM177.629 43.12C176.965 43.12 176.377 42.98 175.865 42.7C175.361 42.42 174.965 42.04 174.677 41.56C174.397 41.072 174.257 40.516 174.257 39.892C174.257 39.396 174.337 38.944 174.497 38.536C174.657 38.128 174.877 37.776 175.157 37.48C175.445 37.176 175.785 36.944 176.177 36.784C176.577 36.616 177.013 36.532 177.485 36.532C177.901 36.532 178.289 36.612 178.649 36.772C179.009 36.932 179.321 37.152 179.585 37.432C179.849 37.704 180.049 38.032 180.185 38.416C180.329 38.792 180.397 39.204 180.389 39.652L180.377 40.168H175.253L174.977 39.16H179.141L178.949 39.364V39.1C178.925 38.852 178.845 38.636 178.709 38.452C178.573 38.26 178.397 38.112 178.181 38.008C177.973 37.896 177.741 37.84 177.485 37.84C177.093 37.84 176.761 37.916 176.489 38.068C176.225 38.22 176.025 38.44 175.889 38.728C175.753 39.008 175.685 39.36 175.685 39.784C175.685 40.192 175.769 40.548 175.937 40.852C176.113 41.156 176.357 41.392 176.669 41.56C176.989 41.72 177.361 41.8 177.785 41.8C178.081 41.8 178.353 41.752 178.601 41.656C178.849 41.56 179.117 41.388 179.405 41.14L180.137 42.16C179.921 42.36 179.673 42.532 179.393 42.676C179.121 42.812 178.833 42.92 178.529 43C178.225 43.08 177.925 43.12 177.629 43.12Z" fill="#211F1C"/>
</svg>
