<svg viewBox="0 0 25 24" fill="none" xmlns="http://www.w3.org/2000/svg">
								<path d="M22.4882 19.6875C21.2029 17.4316 19.1958 15.6738 16.7901 14.6972C17.9864 13.7999 18.8701 12.549 19.316 11.1216C19.7619 9.69424 19.7474 8.16274 19.2745 6.74406C18.8016 5.32539 17.8943 4.09147 16.6812 3.21709C15.468 2.3427 14.0105 1.87219 12.5151 1.87219C11.0197 1.87219 9.5622 2.3427 8.34906 3.21709C7.13591 4.09147 6.22864 5.32539 5.75575 6.74406C5.28286 8.16274 5.26832 9.69424 5.71421 11.1216C6.16009 12.549 7.04379 13.7999 8.24012 14.6972C5.83442 15.6738 3.82735 17.4316 2.54199 19.6875C2.46235 19.8156 2.40926 19.9583 2.3859 20.1073C2.36253 20.2563 2.36936 20.4085 2.40598 20.5548C2.4426 20.7011 2.50826 20.8385 2.59906 20.9589C2.68985 21.0794 2.80393 21.1803 2.93452 21.2557C3.0651 21.3312 3.20952 21.3796 3.35919 21.3981C3.50886 21.4166 3.66073 21.4049 3.80576 21.3635C3.95079 21.3222 4.08603 21.2521 4.20344 21.1574C4.32084 21.0628 4.41801 20.9455 4.48918 20.8125C6.18793 17.8762 9.18793 16.125 12.5151 16.125C15.8423 16.125 18.8423 17.8772 20.5411 20.8125C20.6953 21.0605 20.9399 21.2388 21.2232 21.3097C21.5065 21.3806 21.8063 21.3386 22.0592 21.1925C22.312 21.0464 22.4982 20.8077 22.5783 20.5268C22.6583 20.246 22.6261 19.945 22.4882 19.6875ZM7.64012 9C7.64012 8.03582 7.92603 7.09328 8.4617 6.29159C8.99738 5.4899 9.75875 4.86506 10.6495 4.49609C11.5403 4.12711 12.5205 4.03057 13.4662 4.21867C14.4118 4.40677 15.2805 4.87107 15.9623 5.55285C16.644 6.23463 17.1083 7.10328 17.2964 8.04893C17.4846 8.99459 17.388 9.97479 17.019 10.8656C16.6501 11.7564 16.0252 12.5177 15.2235 13.0534C14.4218 13.5891 13.4793 13.875 12.5151 13.875C11.2226 13.8735 9.98353 13.3594 9.06962 12.4455C8.1557 11.5316 7.64161 10.2925 7.64012 9Z" fill="#211F1C"></path>
							</svg>