<svg viewBox="0 0 25 24" fill="none" xmlns="http://www.w3.org/2000/svg">
								<path d="M22.3111 20.2041L17.8589 15.75C19.1938 14.0104 19.817 11.8282 19.6022 9.64607C19.3873 7.4639 18.3504 5.44516 16.7019 3.99936C15.0533 2.55357 12.9165 1.78899 10.725 1.86071C8.53343 1.93244 6.45121 2.8351 4.90072 4.38559C3.35023 5.93608 2.44757 8.01829 2.37584 10.2098C2.30412 12.4014 3.0687 14.5382 4.51449 16.1867C5.96029 17.8353 7.97903 18.8722 10.1612 19.087C12.3434 19.3019 14.5256 18.6787 16.2651 17.3437L20.7211 21.8006C20.8257 21.9053 20.9499 21.9883 21.0867 22.0449C21.2234 22.1016 21.3699 22.1307 21.5179 22.1307C21.6659 22.1307 21.8125 22.1016 21.9492 22.0449C22.0859 21.9883 22.2102 21.9053 22.3148 21.8006C22.4195 21.696 22.5025 21.5717 22.5591 21.435C22.6157 21.2983 22.6449 21.1517 22.6449 21.0037C22.6449 20.8558 22.6157 20.7092 22.5591 20.5725C22.5025 20.4358 22.4195 20.3115 22.3148 20.2069L22.3111 20.2041ZM4.64013 10.5C4.64013 9.23914 5.01402 8.0066 5.71451 6.95824C6.41501 5.90988 7.41064 5.09278 8.57552 4.61027C9.7404 4.12776 11.0222 4.00151 12.2588 4.24749C13.4955 4.49347 14.6314 5.10063 15.5229 5.99219C16.4145 6.88375 17.0217 8.01967 17.2676 9.2563C17.5136 10.4929 17.3874 11.7747 16.9049 12.9396C16.4224 14.1045 15.6053 15.1001 14.5569 15.8006C13.5085 16.5011 12.276 16.875 11.0151 16.875C9.32491 16.8733 7.70441 16.2011 6.50924 15.0059C5.31408 13.8107 4.64187 12.1902 4.64013 10.5Z" fill="#211F1C"></path>
							</svg>