<svg viewBox="0 0 152 70" fill="none" xmlns="http://www.w3.org/2000/svg">
								<path d="M40.2144 13.1904H55.6413V16.099H49.7079V31.8051H46.1478V16.099H40.2144V13.1904ZM54.7513 18.135H57.718V20.7527C57.718 20.4618 58.0147 20.1709 58.3113 19.5892C58.608 19.0075 58.9047 19.0075 59.2014 18.7167C59.498 18.4258 60.0914 18.135 60.388 18.135C60.6847 17.8441 61.2781 17.8441 61.8714 17.8441C62.1681 17.8441 62.4647 17.8441 62.4647 17.8441H62.7614V20.7527C62.4647 20.7527 62.4647 20.7527 62.1681 20.7527C61.8714 20.7527 61.8714 20.7527 61.5747 20.7527C60.9814 20.7527 60.6847 20.7527 60.0914 21.0435C59.498 21.3344 59.2014 21.6252 58.9047 21.9161C58.608 22.2069 58.3113 22.7886 58.0147 23.3703C57.718 23.9521 57.718 24.5338 57.718 25.4063V31.8051H54.7513V18.135ZM76.705 31.8051H73.7383V30.06C73.4416 30.6417 72.8483 31.2234 71.9583 31.8051C71.3649 32.096 70.4749 32.3869 69.5849 32.3869C67.8048 32.3869 66.6182 32.096 65.7281 30.9326C64.8381 29.7692 64.5415 28.6057 64.5415 26.8606V18.4258H67.5082V26.5698C67.5082 27.7332 67.8048 28.6057 68.1015 29.1874C68.6949 29.7692 69.2882 30.06 70.1782 30.06C70.7716 30.06 71.3649 30.06 71.6616 29.7692C71.9582 29.4783 72.5516 29.1874 72.5516 28.8966C72.8483 28.6057 73.1449 28.3149 73.1449 27.7332C73.1449 27.1515 73.4416 26.8606 73.4416 26.2789V18.4258H76.4083V31.8051H76.705ZM81.7484 27.4423C81.7484 28.3149 82.0451 28.8966 82.6384 29.1874C83.2318 29.4783 83.8251 29.7692 84.7151 29.7692C85.0118 29.7692 85.3085 29.7692 85.6052 29.7692C85.9018 29.7692 86.1985 29.7692 86.4952 29.4783C86.7918 29.4783 87.0885 29.1874 87.3852 28.8966C87.6819 28.6057 87.6819 28.3149 87.6819 28.024C87.6819 27.7332 87.3852 27.4423 87.3852 27.1515C87.0885 26.8606 86.7918 26.8606 86.4952 26.5698C86.1985 26.5698 85.6052 26.2789 85.0118 26.2789C84.4185 26.2789 83.8251 25.988 83.5284 25.988C82.9351 25.988 82.3418 25.6972 82.0451 25.4063C81.7484 25.1155 81.1551 25.1155 80.5617 24.8246C80.2651 24.5338 79.6717 24.2429 79.6717 23.6612C79.375 23.0795 79.375 22.4978 79.375 21.9161C79.375 21.0435 79.6717 20.4618 79.9684 20.1709C80.2651 19.8801 80.8584 19.2984 81.4518 19.0075C82.0451 18.7167 82.6384 18.4258 83.2318 18.4258C83.8251 18.4258 84.7151 18.135 85.3085 18.135C85.9018 18.135 86.7918 18.135 87.3852 18.4258C87.9785 18.4258 88.5719 18.7167 89.1652 19.0075C89.7586 19.2984 90.0552 19.8801 90.3519 20.1709C90.6486 20.7527 90.9452 21.3344 90.9452 22.2069H87.6819C87.6819 21.6252 87.0885 21.0435 86.7918 20.7527C85.9018 20.4618 85.3085 20.1709 84.7151 20.1709C84.4185 20.1709 84.1218 20.1709 83.8251 20.1709C83.5285 20.1709 83.2318 20.1709 82.9351 20.4618C82.6384 20.4618 82.3418 20.7527 82.3418 20.7527C82.0451 21.0435 82.0451 21.0435 82.0451 21.3344C82.0451 21.6252 82.0451 21.9161 82.3418 22.2069C82.6384 22.4978 82.9351 22.4978 83.2318 22.7886C83.5285 22.7886 84.1218 23.0795 84.7151 23.0795C85.3085 23.0795 85.9018 23.3703 86.4952 23.3703C87.0885 23.3703 87.6819 23.6612 87.9785 23.9521C88.5719 24.2429 88.8685 24.2429 89.4619 24.5338C90.0552 24.8246 90.3519 25.1155 90.3519 25.6972C90.6486 26.2789 90.6486 26.5698 90.6486 27.4423C90.6486 28.3149 90.3519 28.8966 90.0552 29.4783C89.7586 30.06 89.1652 30.3509 88.5719 30.9326C88.2752 31.5143 87.6819 31.8051 87.0885 31.8051C86.4952 31.8051 85.6052 32.096 85.0118 32.096C84.1218 32.096 83.2318 32.096 82.6384 31.8051C82.0451 31.5143 81.1551 31.2234 80.8584 30.9326C80.2651 30.6417 79.9684 30.06 79.6717 29.4783C79.0784 28.8966 78.7817 28.3149 78.7817 27.4423H81.7484ZM91.8353 18.135H94.2086V14.3538H97.1754V18.4258H99.8454V20.7527H97.1754V28.024C97.1754 28.3149 97.1754 28.6057 97.1754 28.8966C97.1754 29.1874 97.1754 29.1874 97.472 29.4783C97.7687 29.7692 97.7687 29.7692 97.7687 29.7692C98.0654 29.7692 98.362 29.7692 98.6587 29.7692C98.9554 29.7692 98.9554 29.7692 99.2521 29.7692C99.5487 29.7692 99.5487 29.7692 99.8454 29.7692V31.8051C99.5487 31.8051 99.2521 31.8051 98.9554 31.8051C98.6587 31.8051 98.362 31.8051 98.0654 31.8051C97.1754 31.8051 96.582 31.8051 96.2853 31.5143C95.692 31.5143 95.3953 31.2234 95.0987 30.9326C94.802 30.6417 94.5053 30.3509 94.5053 29.7692C94.5053 29.4783 94.2086 28.8966 94.2086 28.3149V20.4618H91.8353V18.135ZM101.922 18.135H104.889V20.1709C105.186 19.2984 105.779 18.7167 106.669 18.4258C107.559 18.135 108.152 17.8441 109.042 17.8441C110.229 17.8441 111.119 18.135 112.009 18.4258C112.899 18.7167 113.492 19.2984 114.086 19.8801C114.679 20.4618 114.976 21.3344 115.272 22.2069C115.569 23.0795 115.569 23.9521 115.569 25.1155C115.569 25.988 115.569 26.8606 115.272 27.7332C114.976 28.6057 114.679 29.1874 114.086 30.06C113.492 30.6417 112.899 31.2234 112.306 31.5143C111.416 31.8051 110.822 32.096 109.636 32.096C109.339 32.096 108.746 32.096 108.449 32.096C108.152 32.096 107.559 31.8051 107.262 31.8051C106.966 31.5143 106.372 31.5143 106.076 31.2234C105.779 30.9326 105.482 30.6417 105.186 30.3509V37.0405H102.219V18.135H101.922ZM112.602 25.1155C112.602 24.5338 112.602 23.9521 112.306 23.3703C112.009 22.7886 112.009 22.2069 111.712 21.9161C111.416 21.6252 111.119 21.0435 110.526 20.7527C109.932 20.4618 109.636 20.4618 108.746 20.4618C107.559 20.4618 106.372 20.7527 105.779 21.6252C105.185 22.4978 104.889 23.6612 104.889 25.1155C104.889 25.6972 104.889 26.5697 105.186 26.8606C105.482 27.4423 105.482 28.024 106.076 28.3149C106.372 28.6057 106.669 29.1874 107.262 29.1874C107.856 29.4783 108.152 29.4783 108.746 29.4783C109.339 29.4783 109.932 29.4783 110.526 29.1874C111.119 28.8966 111.416 28.6057 111.712 28.024C112.009 27.4423 112.306 27.1515 112.306 26.5698C112.306 26.2789 112.602 25.6972 112.602 25.1155ZM117.942 13.1904H120.909V16.099H117.942V13.1904ZM117.942 18.135H120.909V31.8051H117.942V18.135ZM123.579 13.1904H126.546V31.8051H123.579V13.1904ZM135.743 32.096C134.556 32.096 133.666 31.8051 132.776 31.5143C131.886 31.2234 131.293 30.6417 130.699 30.06C130.106 29.4783 129.513 28.6057 129.216 27.7332C128.919 26.8606 128.623 25.988 128.623 24.8246C128.623 23.6612 128.919 22.7886 129.216 21.9161C129.513 21.0435 130.106 20.1709 130.699 19.5892C131.293 19.0075 131.886 18.4258 132.776 18.135C133.666 17.8441 134.556 17.5533 135.743 17.5533C136.929 17.5533 137.819 17.8441 138.709 18.135C139.599 18.4258 140.193 19.0075 140.786 19.5892C141.379 20.1709 141.973 21.0435 142.269 21.9161C142.566 22.7886 142.863 23.6612 142.863 24.8246C142.863 25.988 142.566 26.8606 142.269 27.7332C141.973 28.6057 141.379 29.4783 140.786 30.06C140.193 30.6417 139.599 31.2234 138.709 31.5143C137.819 31.8051 136.929 32.096 135.743 32.096ZM135.743 29.7692C136.336 29.7692 136.929 29.7692 137.523 29.4783C138.116 29.1874 138.413 28.8966 138.709 28.3149C139.006 27.7332 139.303 27.4423 139.303 26.8606C139.303 26.2789 139.599 25.6972 139.599 25.1155C139.599 24.5338 139.599 23.9521 139.303 23.3703C139.303 22.7886 139.006 22.2069 138.709 21.9161C138.413 21.6252 138.116 21.0435 137.523 20.7527C136.929 20.4618 136.336 20.4618 135.743 20.4618C135.149 20.4618 134.556 20.4618 133.963 20.7527C133.369 21.0435 133.073 21.3344 132.776 21.9161C132.479 22.4978 132.183 22.7886 132.183 23.3703C132.183 23.9521 131.886 24.5338 131.886 25.1155C131.886 25.6972 131.886 26.2789 132.183 26.8606C132.183 27.4423 132.479 28.024 132.776 28.3149C133.073 28.8966 133.369 29.1874 133.963 29.4783C134.556 29.4783 135.149 29.7692 135.743 29.7692ZM143.753 18.135H146.126V14.3538H149.093V18.4258H151.763V20.7527H149.093V28.024C149.093 28.3149 149.093 28.6057 149.093 28.8966C149.093 29.1874 149.093 29.1874 149.39 29.4783C149.686 29.7692 149.686 29.7692 149.686 29.7692C149.983 29.7692 150.28 29.7692 150.576 29.7692C150.873 29.7692 150.873 29.7692 151.17 29.7692C151.466 29.7692 151.466 29.7692 151.763 29.7692V31.8051C151.466 31.8051 151.17 31.8051 150.873 31.8051C150.576 31.8051 150.28 31.8051 149.983 31.8051C149.093 31.8051 148.5 31.8051 148.203 31.5143C147.61 31.5143 147.313 31.2234 147.016 30.9326C146.72 30.6417 146.423 30.3509 146.423 29.7692C146.423 29.4783 146.126 28.8966 146.126 28.3149V20.4618H143.753V18.135Z" fill="#191919"></path>
								<path d="M36.6543 13.1905H22.7107L18.5573 0.102051L14.1072 13.1905H0.460327L11.4372 21.0436L7.28378 34.1321L18.5573 25.9881L29.5342 34.1321L25.3808 21.0436L36.6543 13.1905Z" fill="#00B67A"></path>
								<path d="M26.2708 23.952L25.3808 21.0435L18.5574 25.988L26.2708 23.952Z" fill="#005128"></path>
								<path d="M28.9408 42.2764H0.460327V70.1984H28.9408V42.2764Z" fill="#00B67A"></path>
								<path d="M59.4981 42.2764H31.0176V70.1984H59.4981V42.2764Z" fill="#00B67A"></path>
								<path d="M90.352 42.2764H61.8715V70.1984H90.352V42.2764Z" fill="#00B67A"></path>
								<path d="M120.909 42.2764H92.4286V70.1984H120.909V42.2764Z" fill="#00B67A"></path>
								<path d="M151.763 42.2764H123.282V70.1984H151.763V42.2764Z" fill="#DCDCE6"></path>
								<path d="M123.282 42.2764H137.523V69.9076H123.282V42.2764Z" fill="#00B67A"></path>
								<path d="M14.4039 60.8907L18.854 59.7273L20.6341 65.2535L14.4039 60.8907ZM24.4908 53.9102H16.7773L14.4039 46.9297L12.0306 53.9102H4.61377L10.8439 58.273L8.4705 65.2535L14.7006 60.8907L18.5573 58.273L24.4908 53.9102Z" fill="white"></path>
								<path d="M45.2578 60.8907L49.7079 59.7273L51.4879 65.2535L45.2578 60.8907ZM55.048 53.9102H47.3345L44.9611 46.9297L42.5877 53.9102H34.8743L41.1044 58.273L38.731 65.2535L44.9611 60.8907L48.8178 58.273L55.048 53.9102Z" fill="white"></path>
								<path d="M76.1117 60.8907L80.5617 59.7273L82.3418 65.2535L76.1117 60.8907ZM85.9018 53.9102H78.1884L75.815 46.9297L73.4416 53.9102H65.7281L71.9583 58.273L69.8816 65.2535L76.1117 60.8907L79.9684 58.273L85.9018 53.9102Z" fill="white"></path>
								<path d="M106.669 60.8907L111.119 59.7273L112.899 65.2535L106.669 60.8907ZM116.756 53.9102H109.042L106.669 46.9297L104.295 53.9102H96.582L102.812 58.273L100.439 65.2535L106.669 60.8907L110.526 58.273L116.756 53.9102Z" fill="white"></path>
								<path d="M137.523 60.8907L141.973 59.7273L143.753 65.2535L137.523 60.8907ZM147.313 53.9102H139.599L137.226 46.9297L135.149 53.9102H127.436L133.666 58.273L131.293 65.2535L137.523 60.8907L141.379 58.273L147.313 53.9102Z" fill="white"></path>
							</svg>